<svg version="1.2" xmlns="http://www.w3.org/2000/svg" viewBox="0 0 679 731" width="679" height="731">
	<style>
		.s0 { fill: #2a4f8e } 
		.s1 { fill: #264b8c } 
	</style>
	<g id="Background">
		<path id="Path 0" class="s0" d="m358.75 65.53c-1.51 1.36-3.2 2.25-3.75 1.97-0.55-0.28-1.45 0.17-2 1-0.55 0.83-1.56 1.28-2.25 1.02-0.94-0.37-0.82 1.45 0.48 7.25 0.95 4.25 1.97 9.31 2.27 11.23 0.29 1.92 0.75 4.85 1.02 6.5 0.26 1.65 0.69 4.35 0.95 6 0.26 1.65 0.74 7.28 1.06 12.5 0.32 5.22 0.65 12.65 0.73 16.5 0.07 3.85-0.19 11.05-0.6 16-0.41 4.95-1.22 12.37-1.81 16.5-0.58 4.12-1.21 8.18-1.39 9-0.18 0.82-1.48 6-2.9 11.5-1.42 5.5-4.64 15.4-7.16 22-2.52 6.6-5.84 14.47-7.38 17.5-1.53 3.03-4.83 9.55-7.32 14.5-2.49 4.95-6.2 11.93-8.25 15.5-2.04 3.57-5.51 9.87-7.71 14-2.19 4.12-4.33 7.95-4.76 8.5-0.42 0.55-2.1 3.48-3.73 6.5-1.63 3.02-5.22 10-7.98 15.5-2.75 5.5-6.48 13.37-8.28 17.5-1.79 4.12-3.87 8.96-4.62 10.75-0.76 1.79-1.36 3.81-1.34 4.5 0.01 0.69-0.32 1.63-0.75 2.1-0.43 0.46-0.92 1.81-1.08 3-0.17 1.18-0.7 2.6-1.18 3.15-0.48 0.55-1.11 2.12-1.39 3.5-0.28 1.37-1 4.07-1.59 6-0.59 1.93-1.99 8.68-3.11 15-1.45 8.17-2 15.26-1.89 24.5 0.09 7.15 0.11 14.01 0.06 15.25-0.06 1.24 0.46 2.26 1.15 2.27 0.77 0.01 1.91-3.19 2.95-8.25 0.94-4.55 2.9-12.09 4.37-16.77 1.47-4.68 3.61-10.75 4.76-13.5 1.16-2.75 4.53-9.73 7.51-15.5 2.97-5.77 7.3-13.2 9.62-16.5 2.32-3.3 7.67-10.73 11.88-16.5 4.22-5.77 14.13-20.18 22.04-32 7.91-11.82 16.22-24.88 18.47-29 2.24-4.13 5.71-12 7.7-17.5 2.92-8.05 3.74-11.95 4.2-20 0.57-9.93 0.58-9.98 2.04-6.5 0.82 1.93 1.88 5.07 2.36 7 0.49 1.93 1.22 5.53 1.62 8 0.4 2.47 0.69 11.93 0.63 21-0.07 12.55-0.61 19.01-2.22 27-1.33 6.59-4.38 16.08-8.19 25.5-3.34 8.25-7.36 17.7-8.93 21-1.58 3.3-3.86 8.7-5.07 12-1.21 3.3-3.52 10.27-5.14 15.5-1.61 5.23-3.47 11.3-4.14 13.5-0.68 2.27-1.21 9.85-1.21 17.5 0 10.25 0.44 14.95 1.83 19.5 1.01 3.3 3.15 8.59 4.75 11.75 1.61 3.16 4.16 7.19 5.67 8.95 1.51 1.76 4.32 4.67 6.25 6.48 1.93 1.8 6.2 4.65 9.5 6.32 3.3 1.68 8.48 3.71 11.5 4.51 3.02 0.81 8.31 1.47 11.75 1.48 3.44 0 8.61-0.49 11.5-1.1 2.89-0.6 7.95-2.36 11.25-3.9 3.83-1.8 8.62-5.37 13.25-9.9 5.33-5.22 8.17-9.01 10.72-14.34 2.1-4.39 3.92-10.21 4.61-14.75 0.63-4.13 0.89-10.43 0.58-14-0.32-3.57-0.78-7.4-1.03-8.5-0.26-1.1-0.89-3.8-1.4-6-0.52-2.2-3.53-10.52-6.68-18.5-3.16-7.98-6.35-15.85-7.09-17.5-0.73-1.65-2.09-4.8-3-7-0.92-2.2-2.76-7.38-4.09-11.5-1.34-4.13-3.28-13.13-4.33-20-1.26-8.24-1.79-16.08-1.56-23 0.19-5.77 1.08-15 1.98-20.5 0.9-5.5 2.78-13.38 4.17-17.5 1.39-4.13 3.62-9.86 4.95-12.75 1.33-2.89 2.42-5.47 2.42-5.75 0-0.28 1.86-3.54 4.14-7.25 2.27-3.71 6.16-9.45 8.63-12.75 2.48-3.3 8.4-9.82 13.17-14.5 4.76-4.68 12.46-11.05 17.11-14.16 4.65-3.12 11.6-7.25 15.45-9.18 3.85-1.93 10.82-4.91 15.5-6.62 4.68-1.71 8.95-2.96 9.5-2.77 0.55 0.18-1.02 1.49-3.5 2.92-2.48 1.42-7.08 5.22-10.23 8.45-3.15 3.22-6.83 7.43-8.18 9.36-1.35 1.93-4.33 7.32-6.62 12-2.29 4.68-5.24 12.78-6.56 18-1.76 7.03-2.38 12.23-2.38 20 0 5.78 0.69 14.78 1.53 20 0.84 5.22 1.66 9.95 1.81 10.5 0.16 0.55 1.55 5.05 3.08 10 1.54 4.95 5.09 13.95 7.9 20 2.81 6.05 6.74 13.93 8.73 17.5 2 3.57 5.12 9.2 6.95 12.5 1.83 3.3 5.83 9.9 8.9 14.66 3.06 4.76 7.27 11.51 9.35 15 2.07 3.49 6.17 10.39 9.09 15.34 2.93 4.95 7.61 13.73 10.41 19.5 2.79 5.77 6.64 14.77 8.55 20 1.91 5.23 4.24 12.2 5.18 15.5 0.94 3.3 2.29 8.25 2.99 11 0.7 2.75 1.76 7.93 2.36 11.5 0.6 3.57 1.36 8.98 1.68 12 0.33 3.02 0.81 6.18 1.07 7 0.26 0.82 0.46 9.38 0.45 19-0.02 9.63-0.69 23.13-1.5 30-0.81 6.88-3.01 18.58-4.89 26-1.88 7.42-5.44 18.67-7.91 25-2.48 6.33-6.65 15.55-9.27 20.5-2.63 4.95-5.05 9.23-5.38 9.5-0.34 0.27-1.29 1.82-2.11 3.42-0.83 1.61-3.98 6.38-7 10.61-3.02 4.23-7.74 10.34-10.47 13.58-2.74 3.24-9.04 9.89-14 14.79-4.97 4.89-10.83 10.4-13.03 12.24-2.2 1.84-3.65 3.69-3.21 4.1 0.43 0.42 2.23-0.09 4-1.13 1.76-1.04 7.94-4.86 13.71-8.48 5.77-3.63 11.05-7.05 11.72-7.61 0.68-0.56 2.93-2.28 5-3.81 2.08-1.54 7.15-5.4 11.28-8.6 4.12-3.19 12.93-11.15 19.57-17.7 6.63-6.55 14.51-14.83 17.5-18.41 2.99-3.58 5.67-6.73 5.96-7 0.29-0.27 2.99-3.88 6-8.01 3.01-4.13 6.46-8.85 7.67-10.5 1.21-1.64 4.13-6.14 6.49-9.99 2.35-3.85 4.78-7.9 5.39-9 0.61-1.1 2.14-3.8 3.4-6 1.27-2.2 4.06-7.6 6.2-12 2.14-4.4 4.33-8.79 4.86-9.75 0.53-0.96 2.93-7.04 5.34-13.5 2.41-6.46 6.05-17.38 8.1-24.25 2.05-6.87 4.57-17 5.61-22.5 1.04-5.5 2.63-15.4 3.54-22 1.05-7.59 1.69-19.53 1.76-32.5 0.06-11.27-0.2-24.55-0.57-29.5-0.37-4.95-1.41-13.27-2.3-18.5-0.89-5.23-1.84-10.85-2.1-12.5-0.26-1.65-1.62-7.5-3-13-1.39-5.5-3.92-14.5-5.61-20-1.69-5.5-4.14-12.36-5.44-15.25-1.3-2.89-2.37-5.7-2.37-6.25 0-0.55-0.42-1.79-0.93-2.75-0.51-0.96-3.99-8.05-7.74-15.75-3.75-7.7-8.58-16.7-10.72-20-2.15-3.3-4.8-7.57-5.89-9.5-1.09-1.93-5.37-8-9.51-13.5-4.14-5.5-11-14.05-15.24-19-4.24-4.95-12.39-13.5-18.11-19-5.71-5.5-14.21-13.07-18.87-16.81-4.67-3.75-13.66-10.25-19.99-14.45-6.32-4.2-13.07-8.62-15-9.83-1.93-1.22-7.44-4.28-12.25-6.81-4.81-2.53-14.94-7.25-22.5-10.48-7.56-3.23-18.02-7.25-23.25-8.92-5.23-1.67-15.13-4.39-22-6.04-6.88-1.65-17.45-3.75-23.5-4.66-6.05-0.91-11.9-2.01-13-2.44-1.1-0.44-2.61-2.54-3.36-4.67-0.75-2.14-3.22-7.84-5.5-12.67-2.28-4.83-4.37-8.75-4.64-8.72-0.27 0.04-1.74 1.17-3.25 2.53zm-66.75 26.91c-6.88 1.24-12.95 2.51-13.5 2.83-0.55 0.32-2.24 0.83-3.75 1.15-1.51 0.32-3.99 0.83-5.5 1.14-1.51 0.31-5 1.25-7.75 2.08-2.75 0.84-7.03 2.25-9.5 3.14-2.47 0.9-5.18 1.75-6 1.9-0.82 0.15-5.78 2.04-11 4.19-5.22 2.16-12.2 5.15-15.5 6.66-3.3 1.51-9.6 4.73-14 7.15-4.4 2.43-8.88 4.95-9.95 5.61-1.07 0.67-5.12 3.18-9 5.59-3.88 2.42-7.16 4.78-7.3 5.25-0.14 0.48-0.7 0.87-1.25 0.87-0.55 0-5.72 3.6-11.5 8-5.78 4.4-12.4 9.69-14.71 11.75-2.32 2.06-8.96 8.5-14.75 14.3-5.8 5.8-12.34 12.58-14.54 15.07-2.2 2.5-4.9 5.78-6 7.31-1.1 1.53-4.19 5.54-6.87 8.92-2.68 3.38-5.38 7.18-6 8.43-0.62 1.25-1.47 2.26-1.88 2.25-0.41-0.02-0.75 0.42-0.75 0.97 0 0.55-2.51 4.71-5.58 9.25-3.06 4.54-7.67 12.47-10.25 17.63-2.57 5.16-5.01 9.55-5.42 9.75-0.41 0.21-1.49 2.73-2.39 5.62-0.91 2.89-2.26 6.15-3.01 7.25-0.75 1.1-1.35 2.45-1.33 3 0.01 0.55-0.74 2.8-1.68 5-0.95 2.2-1.78 4.23-1.86 4.5-0.08 0.27-0.7 1.85-1.38 3.5-0.68 1.65-2.32 6.37-3.63 10.5-1.32 4.12-3.57 12.45-4.99 18.5-1.42 6.05-3.22 14.6-4 19-0.77 4.4-1.69 10.25-2.04 13-0.35 2.75-0.93 8.82-1.28 13.5-0.36 4.68-0.65 15.02-0.66 23 0 7.98 0.33 18.32 0.73 23 0.4 4.68 1.17 12.32 1.72 17 0.54 4.68 2.12 13.68 3.5 20 1.38 6.32 2.76 12.63 3.08 14 0.31 1.37 1.48 5.43 2.6 9 1.11 3.57 2.17 7.18 2.36 8 0.18 0.82 0.89 2.85 1.57 4.5 0.69 1.65 1.4 3.79 1.59 4.75 0.19 0.96 1.37 3.89 2.62 6.5 1.25 2.61 2.94 6.67 3.75 9.02 0.82 2.36 1.82 4.27 2.23 4.25 0.41-0.01 0.75 0.66 0.75 1.48 0 0.82 1.85 5.21 4.1 9.75 2.26 4.54 4.49 8.7 4.95 9.25 0.47 0.55 1.7 2.58 2.72 4.5 1.03 1.92 2.9 5.3 4.15 7.5 1.25 2.2 3.47 5.57 4.93 7.5 1.46 1.92 3.32 4.7 4.15 6.17 0.82 1.47 2.4 3.89 3.5 5.39 1.1 1.49 4.16 5.46 6.8 8.83 2.63 3.36 7.57 9.26 10.97 13.11 3.4 3.85 10.02 10.8 14.7 15.44 4.69 4.65 12.39 11.62 17.12 15.5 4.72 3.88 9.6 7.73 10.84 8.56 1.24 0.83 3.23 2.32 4.41 3.32 1.19 0.99 4.41 3.3 7.16 5.12 2.75 1.82 8.15 5.33 12 7.8 3.85 2.47 8.17 5.11 9.6 5.87 1.43 0.77 8.18 4.2 15 7.63 6.82 3.42 13.52 6.47 14.9 6.77 1.37 0.3 2.95 0.92 3.5 1.37 0.55 0.46 4.37 2.11 8.5 3.67 4.12 1.55 10.2 3.6 13.5 4.54 3.3 0.94 9.37 2.67 13.5 3.84 4.12 1.17 7.86 1.78 8.29 1.35 0.44-0.43-0.69-1.53-2.5-2.44-1.81-0.91-6.44-3.12-10.29-4.92-3.85-1.8-9.81-5-13.25-7.1-3.44-2.1-6.48-3.82-6.75-3.82-0.28 0-2.86-1.65-5.75-3.66-2.89-2.01-7.94-5.72-11.24-8.25-3.29-2.52-8.19-6.61-10.89-9.09-2.7-2.48-7.21-6.84-10.02-9.7-2.8-2.87-6.67-7.11-8.6-9.44-1.93-2.32-4.29-4.93-5.26-5.79-0.97-0.87-1.76-2.02-1.75-2.57 0-0.55-1.23-2.35-2.74-4-1.51-1.65-3.43-4.28-4.25-5.85-0.82-1.57-2.29-3.71-3.25-4.75-0.96-1.05-1.75-2.13-1.75-2.4 0-0.27-1.57-2.98-3.5-6-1.93-3.02-3.5-5.73-3.5-6 0-0.27-1.13-2.3-2.5-4.5-1.38-2.2-2.16-3.99-1.75-3.97 0.41 0.02 0.06-0.77-0.79-1.75-0.85-0.98-2.15-3.58-2.89-5.78-0.75-2.2-1.63-4.23-1.96-4.5-0.34-0.27-1.43-2.75-2.44-5.5-1-2.75-2.7-7.7-3.77-11-1.07-3.3-2.22-6.67-2.57-7.5-0.35-0.83-0.73-1.95-0.85-2.5-0.11-0.55-1.45-6.17-2.96-12.5-1.51-6.32-3.17-14.43-3.68-18-0.52-3.57-1.13-8.52-1.38-11-0.24-2.48-0.62-10.35-0.84-17.5-0.21-7.15 0.01-17.95 0.49-24 0.48-6.05 1.33-13.7 1.88-17 0.56-3.3 1.21-7.13 1.45-8.5 0.24-1.38 0.89-4.52 1.44-7 0.56-2.48 1.71-7.2 2.56-10.5 0.86-3.3 1.78-6.9 2.06-8 0.27-1.1 2.29-7.18 4.48-13.5 2.2-6.32 4-11.61 4-11.75 0.01-0.14 0.16-0.59 0.34-1 0.17-0.41 1.54-3.45 3.02-6.75 1.49-3.3 2.7-6.34 2.69-6.75-0.02-0.41 0.65-1.76 1.48-3 0.83-1.24 1.65-2.93 1.82-3.75 0.18-0.82 1.64-4.2 3.24-7.5 1.61-3.3 3.15-6.23 3.43-6.5 0.27-0.27 1.51-2.52 2.75-5 1.24-2.48 2.25-5.06 2.25-5.75 0-0.69 0.45-1.25 1-1.25 0.55 0 1.22-0.79 1.49-1.75 0.27-0.96 2.28-4.9 4.45-8.75 2.18-3.85 4.54-8.13 5.24-9.5 0.7-1.38 1.54-2.73 1.85-3 0.31-0.27 2.01-2.86 3.77-5.75 1.76-2.89 3.2-5.48 3.2-5.75 0-0.27 1.11-1.96 2.47-3.75 1.36-1.79 2.49-3.81 2.5-4.5 0.02-0.69 0.37-1.24 0.78-1.23 0.41 0.01 1.76-1.91 2.99-4.25 1.24-2.35 2.81-5.17 3.5-6.27 0.7-1.1 1.51-2.23 1.81-2.5 0.31-0.27 1.66-2.29 3-4.49 1.35-2.19 2.9-4.71 3.45-5.61 0.55-0.89 2.31-3.6 3.9-6.01 1.6-2.41 5.69-8.67 9.1-13.89 3.4-5.22 9.42-14.68 13.36-21 3.94-6.32 7.16-12.06 7.15-12.75 0-0.69 0.33-1.24 0.74-1.22 0.41 0.02 2.01-2.35 3.56-5.25 1.54-2.9 4.82-8.65 7.27-12.78 2.46-4.13 8.26-15.15 12.89-24.5 4.63-9.35 9.83-20.38 11.55-24.5 1.72-4.13 4.85-12.67 6.95-19 2.1-6.33 4.02-12.74 4.26-14.25 0.25-1.51 0.18-2.71-0.14-2.66-0.33 0.06-6.22 1.11-13.09 2.35z"/>
		<path id="Path 1" class="s1" d="m325.55 12c-0.3 0.55 0.21 2.24 1.13 3.75 0.92 1.51 3.68 6.57 6.13 11.25 2.45 4.67 6.14 12.77 8.2 18 2.06 5.23 4.79 12.65 6.06 16.5 1.27 3.85 2.79 7.31 3.37 7.69 0.58 0.38 1.7 0.16 2.48-0.5 0.77-0.65 2.12-1.3 3-1.43 0.87-0.13 2.59-1.25 3.83-2.5l2.24-2.26c-5.68-10.08-8.09-14.13-9-15.5-0.92-1.38-3.62-5.42-6.01-9-2.4-3.58-7.87-11.11-12.17-16.75-4.29-5.64-8.01-10.25-8.26-10.25-0.25 0-0.7 0.45-1 1z"/>
	</g>
</svg>