<svg version="1.2" xmlns="http://www.w3.org/2000/svg" viewBox="0 0 679 731" width="679" height="731">
	<style>
		.s0 { fill: #ffffff } 
	</style>
	<path id="Path 0" class="s0" d="m316.02 0.75c0.01 0.41 0.85 1.65 1.85 2.75 1.01 1.1 4.29 6.05 7.29 11 3 4.95 6.72 11.7 8.27 15 1.56 3.3 4.18 9.15 5.83 13 1.66 3.85 4.26 10.6 5.79 15 1.53 4.4 3.92 12.5 5.3 18 1.38 5.5 2.99 12.7 3.57 16 0.58 3.3 1.53 10.5 2.1 16 0.57 5.5 1.04 15.17 1.05 21.5 0.01 6.32-0.48 16.68-1.07 23-0.6 6.32-2.26 16.68-3.68 23-1.43 6.32-3.86 15.1-5.4 19.5-1.54 4.4-3.99 11.15-5.44 15-1.44 3.85-3.99 9.7-5.66 13-1.66 3.3-3.35 6.68-3.76 7.5-0.4 0.82-3.35 6.45-6.55 12.5-3.19 6.05-6.14 11.45-6.55 12-0.41 0.55-2.89 5.05-5.52 10-2.62 4.95-5.59 10.24-6.6 11.75-1.01 1.51-1.84 2.98-1.84 3.25 0 0.27-2.5 5.11-5.55 10.75-3.06 5.64-7.76 15.2-10.45 21.25-2.69 6.05-6.27 14.82-7.96 19.5-1.69 4.68-3.94 11.88-5 16-1.06 4.13-2.65 11.77-3.54 17-0.91 5.3-1.62 15.02-1.62 22 0 6.88 0.26 13.29 0.56 14.25q0.56 1.76 1.81 0.86c0.69-0.49 1.57-2.86 1.95-5.25 0.39-2.4 1.89-8.41 3.33-13.36 1.44-4.95 4.52-13.5 6.83-19 2.31-5.5 7.47-15.4 11.47-22 3.99-6.6 11.09-17.18 15.76-23.5 4.68-6.32 14.96-21.18 22.85-33 7.89-11.82 16.38-25.32 18.87-30 2.49-4.68 5.96-12.55 7.71-17.5 2.36-6.66 3.36-11.6 3.87-19l0.69-10c3.51 10.85 4.84 15.8 5.22 18 0.39 2.2 0.64 11.88 0.56 21.5-0.12 13.71-0.61 19.67-2.29 27.5-1.18 5.5-4.58 16.07-7.55 23.5-2.97 7.43-7.21 17.55-9.43 22.5-2.21 4.95-5.61 13.39-7.56 18.75-1.94 5.36-4.25 12.56-5.13 16-0.88 3.44-1.97 8.73-2.42 11.75-0.44 3.02-0.85 8.76-0.9 12.75-0.04 3.99 0.6 10.74 1.44 15 0.85 4.37 3.14 10.98 5.25 15.16 2.28 4.53 5.91 9.59 9.32 13 3.08 3.08 8.48 7.06 12 8.86 3.53 1.8 8.89 3.94 11.91 4.74 3.02 0.81 8.65 1.47 12.5 1.47 3.85 0 9.48-0.67 12.5-1.48 3.02-0.81 7.75-2.57 10.5-3.91 2.75-1.34 8.26-5.62 12.25-9.51 5.3-5.18 8.19-9.03 10.75-14.33 1.93-3.99 3.95-9.95 4.5-13.25 0.54-3.3 0.99-8.59 0.99-11.75 0.01-3.16-0.71-9.01-1.59-13-0.88-3.99-2.87-10.85-4.42-15.25-1.55-4.4-5.38-14.07-8.51-21.5-3.13-7.43-6.97-17.32-8.53-22-1.57-4.68-3.61-12.77-4.55-18-1.05-5.87-1.7-14.66-1.7-23 0-7.95 0.68-17.51 1.66-23.25 0.91-5.36 2.81-13.24 4.23-17.5 1.42-4.26 4.91-12.47 7.75-18.25 2.84-5.78 7.81-14.1 11.05-18.5 3.24-4.4 9.79-11.82 14.57-16.5 4.78-4.68 12.48-11.05 17.12-14.16 4.64-3.12 11.58-7.25 15.43-9.18 3.85-1.93 10.82-4.91 15.5-6.62 4.68-1.71 8.95-2.96 9.5-2.77 0.55 0.18-1.02 1.5-3.5 2.93-2.48 1.43-7.13 5.23-10.35 8.45-3.21 3.22-7.21 7.88-8.87 10.35-1.66 2.47-3.93 6.3-5.04 8.5-1.12 2.2-3.09 6.81-4.38 10.25-1.3 3.44-3.03 9.51-3.86 13.5-0.82 3.99-1.5 11.97-1.5 17.75 0.01 5.78 0.7 14.78 1.54 20 0.84 5.22 3.27 14.68 5.39 21 2.12 6.32 6.12 16.23 8.89 22 2.76 5.77 7.82 15.45 11.24 21.5 3.43 6.05 7.44 12.8 8.92 15 1.49 2.2 7.57 12.1 13.52 22 5.95 9.9 13.41 23.18 16.59 29.5 3.17 6.32 7.31 15.55 9.2 20.5 1.89 4.95 4.58 13.05 5.97 18 1.39 4.95 3.04 11.25 3.67 14 0.64 2.75 2.01 10.18 3.07 16.5 1.6 9.64 1.85 15.31 1.55 35-0.24 15.02-0.93 26.75-1.92 32.5-0.85 4.95-2.65 13.5-4.01 19-1.35 5.5-3.46 12.7-4.67 16-1.21 3.3-3.27 8.36-4.58 11.25-1.3 2.89-2.37 5.7-2.37 6.25 0 0.55-2.18 4.94-4.83 9.75-2.66 4.81-5.74 10.33-6.84 12.25-1.1 1.92-3.18 5.3-4.63 7.5-1.45 2.2-4.07 6.02-5.82 8.5-1.76 2.48-3.69 5-4.29 5.6-0.6 0.61-2.87 3.31-5.05 6-2.18 2.7-6.91 7.82-10.5 11.4-3.6 3.58-9.69 9.31-13.54 12.75-4.42 3.95-6.35 6.26-5.25 6.25 0.96 0 4.56-1.66 8-3.69 3.44-2.03 9.63-5.89 13.75-8.58 4.13-2.69 12.64-8.8 18.93-13.56 6.29-4.77 17.58-14.75 25.1-22.17 7.52-7.42 17-17.6 21.07-22.61 4.07-5.01 9.48-11.98 12.02-15.5 2.54-3.51 7.68-11.34 11.41-17.39 3.74-6.05 9.61-16.62 13.05-23.5 3.43-6.87 7.45-15.65 8.93-19.5 1.48-3.85 4.01-10.82 5.63-15.5 1.61-4.68 4.02-12.32 5.34-17 1.32-4.68 3.35-13.23 4.52-19 1.17-5.77 2.79-15.45 3.6-21.5 0.82-6.05 1.75-18.87 2.08-28.5 0.36-10.61 0.12-23.01-0.61-31.5-0.66-7.7-1.86-17.82-2.67-22.5-0.81-4.68-1.71-10.07-2.01-12-0.29-1.93-1.61-7.77-2.92-13-1.31-5.23-4.16-14.9-6.34-21.5-2.18-6.6-4.71-14.02-5.63-16.5-0.92-2.48-4.71-10.8-8.42-18.5-3.71-7.7-9.82-18.95-13.57-25-3.75-6.05-9.3-14.37-12.32-18.5-3.03-4.12-9.43-12.22-14.23-18-4.79-5.78-13.84-15.45-20.09-21.5-6.26-6.05-15.2-14.08-19.87-17.84-4.68-3.76-14.8-11.01-22.5-16.12-7.7-5.1-18.5-11.63-24-14.52-5.5-2.89-16.07-7.85-23.5-11.02-7.43-3.17-18-7.2-23.5-8.95-5.5-1.76-15.4-4.48-22-6.04-6.6-1.57-16.73-3.58-22.5-4.47-5.77-0.9-11.4-1.81-12.5-2.03-1.34-0.26-2.79-2.3-4.4-6.2-1.32-3.2-4.27-9.86-6.57-14.81-2.29-4.95-7.26-13.95-11.04-20-3.77-6.05-9.49-14.6-12.69-19-3.2-4.4-9.75-12.81-14.56-18.68-4.81-5.88-9.3-10.71-9.99-10.75-0.69-0.04-1.24 0.27-1.23 0.68zm-17.02 90.42c-3.02 0.52-6.18 1.2-7 1.51-0.82 0.32-2.62 0.74-4 0.93-1.37 0.19-3.18 0.4-4 0.46-0.82 0.06-2.85 0.52-4.5 1.02-1.65 0.5-4.12 1.17-5.5 1.47-1.37 0.31-3.85 0.8-5.5 1.1-1.65 0.29-3.23 0.83-3.5 1.19-0.27 0.36-1.62 0.8-3 0.99-1.37 0.19-4.98 1.21-8 2.27-3.02 1.06-6.4 2.15-7.5 2.42-1.1 0.27-3.47 1.04-5.26 1.73-1.8 0.68-3.26 1.58-3.25 1.99 0 0.41-0.33 0.56-0.74 0.32-0.41-0.24-2.77 0.51-5.25 1.65-2.47 1.15-4.95 2.19-5.5 2.32-0.55 0.13-3.7 1.47-7 2.98-3.3 1.52-9.74 4.83-14.32 7.37-4.57 2.53-9.07 5.07-10 5.62-0.92 0.56-3.82 2.25-6.43 3.75-2.61 1.51-4.75 3.19-4.75 3.74 0 0.55-0.34 0.79-0.75 0.53-0.41-0.26-1.76 0.42-3 1.5-1.24 1.08-2.47 1.97-2.75 1.97-0.27 0-2.75 1.57-5.5 3.5-2.75 1.93-5 3.84-4.99 4.25 0 0.41-1.46 1.54-3.25 2.5-1.79 0.96-6.19 4.46-9.76 7.79-3.57 3.32-6.72 6.03-7 6.01-0.27-0.02-4.99 4.46-10.47 9.96-5.48 5.49-9.53 9.98-9 9.97 0.53-0.01-1.15 1.9-3.74 4.25-2.59 2.35-4.74 4.72-4.79 5.27-0.04 0.55-0.86 1.68-1.82 2.5-0.95 0.82-2.58 2.85-3.61 4.5-1.04 1.65-2.49 3.34-3.23 3.75-0.74 0.41-1.34 1.43-1.34 2.25 0 0.82-0.56 1.66-1.25 1.84-0.69 0.19-2.04 1.99-3 4-0.96 2.02-2.2 3.66-2.75 3.66-0.55 0-1.22 1.13-1.5 2.5-0.27 1.38-0.95 2.5-1.5 2.5-0.55 0-1 0.45-1 1 0 0.55-0.89 2.01-1.97 3.25-1.08 1.24-1.76 2.59-1.5 3 0.26 0.41 0.02 0.75-0.53 0.75-0.55 0-1.99 1.91-3.2 4.25-1.21 2.34-2.11 4.59-2 5 0.11 0.41-0.14 0.73-0.55 0.71-0.41-0.02-1.85 2.34-3.19 5.25-1.33 2.91-2.57 5.97-2.75 6.79-0.17 0.82-1.05 1.95-1.96 2.5-1.13 0.69-1.37 1.47-0.76 2.5 0.7 1.18 0.58 1.29-0.58 0.5-1.16-0.79-1.32-0.64-0.74 0.75 0.47 1.13 0.28 1.74-0.52 1.72-0.69-0.01-0.91 0.32-0.5 0.75 0.42 0.43-0.37 2.69-1.75 5.03-1.37 2.34-2.27 4.59-1.99 5 0.27 0.41-0.18 1.76-1 3-0.83 1.24-1.17 2.24-0.76 2.22 0.41-0.02-0.15 0.89-1.25 2.03-1.1 1.14-1.55 2.03-1 1.99 0.6-0.05 0.55 0.44-0.12 1.22-0.61 0.71-2.07 4.1-3.25 7.54-1.17 3.44-1.9 6.7-1.63 7.25 0.28 0.55 0 1.11-0.62 1.25-0.61 0.14-1.18 1.71-1.25 3.5-0.07 1.78-0.47 3.25-0.88 3.25-0.41 0-0.52 0.9-0.25 2 0.28 1.1 0.05 2-0.5 2-0.55 0-0.77 0.9-0.5 2 0.28 1.1 0.05 2.23-0.5 2.5-0.55 0.27-0.8 1.06-0.56 1.75 0.24 0.69 0.03 1.7-0.47 2.25-0.5 0.55-1.09 2.35-1.31 4-0.22 1.65-0.64 3.68-0.94 4.5-0.29 0.82-1.09 4.88-1.78 9-0.68 4.13-0.94 8.06-0.59 8.75 0.36 0.69 0.2 1.25-0.35 1.25-0.55 0-1.02 1.01-1.05 2.25-0.02 1.24-0.29 6.07-0.6 10.75-0.31 4.68-0.63 15.25-0.71 23.5-0.08 8.25 0.19 18.82 0.59 23.5 0.4 4.68 1.19 12.55 1.76 17.5 0.56 4.95 1.47 9.45 2.01 10 0.54 0.55 0.73 1.23 0.42 1.5-0.31 0.27 0.42 5.23 1.61 11 1.18 5.77 2.56 10.95 3.06 11.5 0.49 0.55 0.67 1.23 0.39 1.5-0.28 0.27 0.02 1.85 0.66 3.5 0.65 1.65 1.36 4.13 1.59 5.5 0.23 1.38 0.85 2.73 1.37 3 0.52 0.27 0.68 1.18 0.35 2-0.33 0.82 0.11 2.29 0.98 3.25 0.86 0.96 1.23 1.96 0.82 2.23-0.41 0.26-0.19 1.05 0.49 1.75 0.69 0.7 0.95 1.61 0.59 2.02-0.37 0.41-0.14 0.75 0.5 0.75 0.64 0 0.91 0.56 0.6 1.25-0.32 0.69 0.02 1.93 0.75 2.75 0.73 0.82 1.48 2.4 1.67 3.5 0.19 1.1 0.76 2.23 1.26 2.5 0.51 0.27 1.02 1.51 1.15 2.75 0.13 1.24 0.47 2.25 0.74 2.25 0.28 0 0.59 1.01 0.71 2.25 0.12 1.24 0.68 2.36 1.25 2.5 0.57 0.14 0.82 0.7 0.54 1.25-0.27 0.55-0.05 1 0.5 1 0.55 0 0.78 0.45 0.5 1-0.27 0.55 0.18 1.68 1 2.5 0.83 0.82 1.2 1.73 0.83 2-0.36 0.28-0.14 0.5 0.5 0.5 0.64 0 0.93 0.56 0.64 1.25-0.29 0.69 0.39 2.26 1.5 3.5 1.12 1.24 2.03 2.48 2.03 2.75 0 0.27-0.01 0.84-0.03 1.25-0.02 0.41 0.9 1.88 2.03 3.25 1.13 1.38 2.05 3.06 2.03 3.75-0.02 0.69 0.54 1.81 1.23 2.5 0.69 0.69 2.37 3.45 3.75 6.14 1.37 2.69 3.05 5.05 3.74 5.25 0.69 0.2 1.03 0.7 0.77 1.11-0.27 0.41 0.42 1.65 1.53 2.75 1.11 1.1 2 2.56 1.98 3.25-0.02 0.69 0.65 1.48 1.47 1.75 0.83 0.27 1.28 0.84 1.01 1.25-0.26 0.41 0.76 2.1 2.27 3.75 1.52 1.65 2.88 3.45 3.02 4 0.14 0.55 2.61 3.91 5.48 7.47 2.87 3.56 7.58 8.85 10.47 11.75 2.89 2.91 5.25 5.73 5.25 6.28 0 0.55 0.68 1 1.5 1 0.82 0 1.29 0.34 1.04 0.75-0.26 0.41 1.21 2.45 3.25 4.52 2.04 2.07 4.09 3.42 4.54 3 0.46-0.42 0.69-0.32 0.5 0.23-0.18 0.55 0.09 1.23 0.61 1.5 0.52 0.27 3 2.64 5.5 5.27 2.51 2.62 4.67 4.53 4.81 4.25 0.14-0.29 1.49 0.85 3 2.52 1.51 1.67 2.88 2.91 3.04 2.75 0.17-0.16 1.53 0.84 3.04 2.21 1.51 1.38 3.8 3.17 5.08 4 1.29 0.83 2.95 2.06 3.71 2.75 0.76 0.69 1.39 0.91 1.41 0.5 0.02-0.41 0.47 0.04 1 1 0.53 0.96 1.42 1.52 1.97 1.25 0.55-0.27 1-0.05 1 0.5 0 0.55 1.91 2.21 4.25 3.69 2.34 1.49 7.18 4.57 10.75 6.87 3.57 2.29 7.69 4.79 9.15 5.55 1.46 0.77 4.95 2.63 7.75 4.14 2.81 1.51 5.11 2.41 5.12 2 0-0.41 0.34-0.24 0.75 0.37 0.4 0.62 3.88 2.59 7.73 4.37 3.85 1.79 7.9 3.43 9 3.66 1.1 0.22 2.58 0.95 3.29 1.63 0.72 0.67 1.28 0.88 1.25 0.47-0.02-0.41 1.18 0.04 2.67 1 1.48 0.96 2.83 1.64 3 1.5 0.16-0.14 1.75 0.35 3.54 1.09 1.79 0.74 4.82 1.85 6.75 2.46 1.93 0.62 4.63 1.27 6 1.46 1.38 0.18 3.4 0.83 4.5 1.44 1.1 0.61 3.8 1.47 6 1.91 2.2 0.44 4.23 0.86 4.5 0.93 0.27 0.07 1.29 0.54 2.26 1.05 0.97 0.5 2.09 0.58 2.5 0.18 0.41-0.4 0.06-1.43-0.76-2.3-0.82-0.87-2.06-1.33-2.75-1.03-0.69 0.31-1.25 0.11-1.25-0.44 0-0.55-0.45-0.77-1-0.5-0.55 0.27-1 0.05-1-0.5 0-0.55-0.45-0.77-1-0.5-0.55 0.27-0.99-0.06-0.97-0.75 0.01-0.69-0.32-0.93-0.75-0.53-0.43 0.39-1.9-0.18-3.28-1.29-1.37-1.1-2.84-1.98-3.25-1.96-0.41 0.01-4.12-1.99-8.25-4.47-4.12-2.48-7.5-4.27-7.5-4 0 0.27-1.35-0.62-3-2-1.65-1.37-3.45-2.5-4-2.5-0.55 0-2.46-1.35-4.25-3.01-1.79-1.65-3.81-3-4.5-3-0.69 0.01-1.24-0.33-1.22-0.74 0.01-0.41-2.8-3.07-6.25-5.9-3.46-2.83-9.65-8.62-13.78-12.86-4.12-4.25-9.19-9.47-11.25-11.6-2.06-2.14-3.41-3.9-3-3.92 0.41-0.02-0.04-0.47-1-1-0.96-0.53-1.75-1.64-1.75-2.47 0-0.83-1.24-2.42-2.75-3.53-1.51-1.12-2.3-2.03-1.75-2.02q1 0.02 0-0.72c-0.55-0.4-1.68-2.01-2.5-3.58-0.83-1.57-2.29-3.71-3.25-4.75-0.96-1.05-1.74-2.24-1.73-2.65 0.01-0.41-0.78-1.65-1.76-2.75-0.98-1.1-2.68-3.93-3.77-6.28-1.1-2.36-2.21-4.26-2.49-4.24-0.27 0.02-1.12-1.43-1.88-3.22-0.76-1.79-1.32-3.6-1.25-4.01 0.07-0.41-0.57-1.31-1.41-2-0.85-0.69-1.53-2.04-1.5-3 0.02-0.96-0.3-1.75-0.71-1.75-0.41 0-0.84-1.01-0.96-2.25-0.12-1.24-0.68-2.36-1.25-2.5-0.57-0.14-0.81-0.7-0.54-1.25 0.28-0.55 0.05-1-0.5-1-0.55 0-0.95-0.34-0.88-0.75 0.06-0.41 0.06-1.54 0-2.5-0.07-0.96-0.8-2.42-1.62-3.25-0.82-0.83-1.68-2.51-1.91-3.75-0.22-1.24-0.89-4.39-1.5-7-0.6-2.61-1.54-4.75-2.09-4.75-0.55 0-0.77-0.67-0.5-1.5 0.28-0.83 0.05-1.73-0.5-2-0.55-0.27-0.77-0.95-0.5-1.5 0.28-0.55 0.18-1.56-0.2-2.25-0.39-0.69-0.8-2.15-0.93-3.25-0.12-1.1-1.21-6.05-2.42-11-1.2-4.95-2.14-10.46-2.07-12.25 0.07-1.79-0.22-3.25-0.63-3.25-0.41 0-0.72-2.14-0.67-4.75 0.04-2.61-0.15-5.2-0.43-5.75-0.28-0.55-0.42-3.59-0.33-6.75 0.1-3.16-0.27-5.98-0.82-6.25q-1-0.51 0.03-3.25c0.72-1.91 0.71-2.9-0.03-3.25-0.74-0.35-0.75-1.34-0.03-3.25q1.04-2.75 0.03-4.75c-0.55-1.1-0.66-2-0.25-1.99 0.41 0 1.15-5.06 1.65-11.25 0.49-6.19 1-12.16 1.12-13.26 0.12-1.1 0.55-2.9 0.96-4 0.4-1.1 0.48-2.45 0.18-3-0.31-0.55-0.24-1.38 0.14-1.83 0.39-0.46 0.73-1.14 0.78-1.5 0.04-0.37 0.43-2.47 0.86-4.67 0.43-2.2 1.4-6.02 2.15-8.5 0.76-2.48 1.5-5.62 1.67-7 0.16-1.37 0.62-3.06 1.02-3.75 0.39-0.69 0.5-1.25 0.22-1.25-0.27 0 0.21-1.46 1.08-3.25 0.87-1.79 1.32-3.81 1-4.5-0.32-0.69-0.24-1.05 0.17-0.82 0.41 0.24 1.76-2.57 2.99-6.25 1.23-3.67 2.24-7.47 2.25-8.43 0.01-0.96 0.46-1.75 1.01-1.75 0.55 0 0.9-0.34 0.79-0.75-0.12-0.41 0.29-1.65 0.9-2.75 0.61-1.1 1.27-2.9 1.46-4 0.19-1.1 0.91-2.56 1.6-3.25 0.69-0.69 1.25-2.38 1.25-3.75 0-1.37 0.45-2.5 1-2.5 0.55 0 0.78-0.45 0.5-1-0.27-0.55-0.05-1 0.5-1 0.55 0 0.78-0.45 0.5-1-0.27-0.55-0.05-1 0.5-1 0.55 0 0.91-0.34 0.8-0.75-0.11-0.41 0.77-2.55 1.96-4.75 1.2-2.2 1.85-4.35 1.46-4.78-0.4-0.43-0.16-0.76 0.53-0.75 0.69 0.02 1.03-0.42 0.75-0.97-0.27-0.55 0.06-1.22 0.75-1.48 0.69-0.27 1.93-2.3 2.75-4.53 0.82-2.22 1.84-4.03 2.25-4.01 0.41 0.01 0.53-0.43 0.25-0.98-0.27-0.55 0.18-1.68 1-2.5 0.82-0.82 1.61-2.05 1.75-2.73 0.14-0.67 0.81-1.8 1.5-2.5 0.69-0.7 0.92-1.83 0.51-2.52q-0.73-1.24 0.5-0.5c0.72 0.43 1.29 0.22 1.36-0.5 0.06-0.69 0.06-1.59 0-2-0.07-0.41 0.33-0.75 0.88-0.75 0.55 0 0.98-0.56 0.97-1.25-0.02-0.69 0.86-2.37 1.96-3.75 1.11-1.37 1.68-2.85 1.29-3.28-0.4-0.43-0.16-0.76 0.53-0.75 0.69 0.02 1.25-0.65 1.25-1.47 0-0.82 0.45-1.5 1-1.5 0.55 0 0.78-0.45 0.5-1-0.27-0.55 0.06-0.99 0.75-0.97 0.69 0.01 0.91-0.21 0.5-0.5-0.41-0.29 0.15-1.43 1.25-2.53 1.1-1.1 2-2.68 2-3.5 0-0.82 0.45-1.5 1-1.5 0.55 0 1.23-1.13 1.5-2.5 0.28-1.38 0.95-2.5 1.5-2.5 0.55 0 0.78-0.45 0.5-1-0.27-0.55 0.18-1.23 1-1.5 0.82-0.27 1.28-0.95 1-1.5-0.27-0.55 0.06-1.21 0.75-1.46 0.69-0.25 1.98-2.17 2.88-4.25 0.89-2.09 2.37-4.47 3.29-5.29 0.92-0.82 1.65-2.06 1.62-2.75-0.02-0.69 0.32-1.36 0.75-1.5 0.44-0.14 1.9-2.05 3.25-4.25 1.35-2.2 2.45-4.35 2.45-4.79 0.01-0.43 0.69-1.21 1.51-1.73 0.82-0.52 1.05-0.97 0.5-1-0.55-0.02-0.21-0.48 0.75-1.01 0.96-0.53 1.53-1.42 1.25-1.97-0.27-0.55 0.18-1.22 1-1.5 0.82-0.28 1.28-0.95 1-1.5-0.27-0.55-0.05-1 0.5-1 0.55 0 1.21-0.79 1.47-1.75 0.26-0.96 1.05-2.63 1.75-3.7 0.7-1.07 2.29-3.09 3.53-4.5 1.24-1.4 2.26-2.89 2.25-3.3 0-0.41-0.04-1.09-0.09-1.5-0.05-0.41 0.51-1.03 1.25-1.37 0.74-0.33 2.74-3.03 4.46-6 1.71-2.96 3.28-5.83 3.47-6.38 0.2-0.55 0.94-1.68 1.64-2.5 0.71-0.82 1.28-1.84 1.28-2.25-0.01-0.41 1.14-1.99 2.54-3.5 1.41-1.51 3.09-4.22 3.75-6.01 0.66-1.8 1.43-3.25 1.7-3.23 0.27 0.03 1.06-1.09 1.75-2.48 0.69-1.39 1.14-2.68 1-2.86-0.14-0.18 0.93-1.87 2.37-3.75 1.44-1.88 3.81-5.56 5.25-8.17 1.45-2.61 2.4-4.75 2.13-4.75-0.27 0 0.41-1.01 1.52-2.25 1.11-1.24 2.06-2.7 2.12-3.25 0.05-0.55 0.04-1.34-0.02-1.75-0.07-0.41 0.33-0.75 0.88-0.75 0.55 0 1.23-1.35 1.5-3 0.27-1.65 0.95-3.22 1.5-3.5 0.55-0.28 2.13-2.75 3.5-5.5 1.38-2.75 2.5-5.68 2.5-6.5 0-0.82 0.45-1.5 1-1.5 0.55 0 1-0.9 1-2 0-1.1 0.45-2 1-2 0.55 0 1.21-1.01 1.46-2.25 0.25-1.24 0.55-2.7 0.67-3.25 0.13-0.55 0.82-1.56 1.55-2.25 0.73-0.69 1.82-3.16 2.43-5.5 0.6-2.34 0.94-4.28 0.75-4.32-0.2-0.04 0.43-0.83 1.39-1.75 0.96-0.92 1.75-2.35 1.75-3.18 0-0.83 0.23-1.95 0.5-2.5 0.27-0.55 0.5-1.22 0.5-1.5 0-0.28 0.12-0.84 0.27-1.25 0.14-0.41 0.53-1.2 0.86-1.75 0.33-0.55 1.52-3.92 2.65-7.5 1.12-3.58 2.24-7.74 2.47-9.25 0.24-1.51 0.16-2.7-0.16-2.63-0.33 0.06-3.07 0.54-6.09 1.05z"/>
</svg>