<svg version="1.2" xmlns="http://www.w3.org/2000/svg" viewBox="0 0 679 731" width="679" height="731">
	<style>
		.s0 { opacity: .96;fill: #42639b } 
		.s1 { opacity: .99;fill: #187802 } 
		.s2 { opacity: .5;fill: none;stroke: #000000;stroke-miterlimit:100 } 
	</style>
	<g id="Background">
		<path id="Path 0" class="s0" d="m320.1 4.94c-0.05 0.58 1.18 2.97 2.75 5.31 1.57 2.34 5.14 8.52 7.94 13.75 2.79 5.23 7.1 14.45 9.56 20.5 2.47 6.05 6.08 16.4 8.01 23 1.94 6.6 4.42 17.17 5.53 23.5 1.1 6.33 2.27 14.42 2.59 18 0.33 3.58 0.79 10.1 1.03 14.5 0.24 4.4-0.02 13.85-0.58 21-0.56 7.15-1.68 16.82-2.49 21.5-0.81 4.68-2.21 11.43-3.11 15-0.89 3.57-3.39 11.45-5.56 17.5-2.16 6.05-6.12 15.72-8.81 21.5-2.69 5.78-7.87 16.13-11.51 23-3.64 6.88-8.55 15.88-10.91 20-2.36 4.13-5.77 10.2-7.57 13.5-1.81 3.3-5.42 10.05-8.04 15-2.62 4.95-6.64 13.27-8.93 18.5-2.3 5.23-4.76 10.85-5.48 12.5-0.71 1.65-2.66 7.05-4.33 12-1.67 4.95-3.94 12.82-5.06 17.5-1.11 4.68-2.5 11.76-3.08 15.75-0.58 3.99-1.06 12.31-1.06 18.5-0.01 6.19 0.33 12.72 0.75 14.52 0.42 1.8 1.1 3.27 1.51 3.25 0.41-0.01 0.75-1.03 0.74-2.27 0-1.24 0.92-5.85 2.04-10.25 1.13-4.4 3.22-11.6 4.64-16 1.42-4.4 4.92-12.95 7.77-19 2.85-6.05 7.38-14.38 10.07-18.5 2.69-4.13 7.84-11.55 11.45-16.5 3.61-4.95 7.36-10.13 8.33-11.5 0.97-1.37 6.14-8.95 11.49-16.83 5.35-7.89 12.37-18.46 15.61-23.5 3.23-5.05 7.8-12.99 10.15-17.67 2.35-4.68 5.26-11.43 6.47-15 1.21-3.57 2.72-10.89 3.35-16.26 0.63-5.36 1.48-9.75 1.89-9.75 0.41 0.01 1.43 2.37 2.26 5.26 0.82 2.89 1.95 7.95 2.49 11.25 0.54 3.3 0.98 12.07 0.98 19.5-0.01 7.43-0.66 17.32-1.45 22-0.79 4.68-2.3 11.43-3.34 15-1.05 3.57-4.72 13.25-8.16 21.5-3.44 8.25-8.66 20.85-11.59 28-2.94 7.15-6.25 16.6-7.35 21-1.11 4.4-2.51 12.73-3.12 18.5-0.62 5.77-0.82 13.2-0.45 16.5 0.37 3.3 1.79 9.38 3.17 13.5 1.37 4.13 4.14 9.94 6.15 12.91 2.01 2.98 5.92 7.48 8.69 10 2.77 2.53 7.72 5.87 11 7.44 3.28 1.58 8.89 3.48 12.47 4.24 3.57 0.76 8.52 1.38 11 1.38 2.47 0 7.42-0.69 11-1.54 3.57-0.85 9.17-2.98 12.43-4.74 3.26-1.75 8.44-5.67 11.51-8.69 3.06-3.02 6.88-7.75 8.48-10.5 1.59-2.75 3.81-7.7 4.92-11 1.5-4.46 2.03-8.7 2.07-16.5 0.03-7.92-0.53-12.59-2.26-19-1.26-4.68-6.27-18.18-11.12-30-4.86-11.82-9.84-25.1-11.06-29.5-1.23-4.4-2.82-12.05-3.54-17-0.74-5.1-1.17-14.86-1-22.5 0.22-9.36 1-16.57 2.55-23.5 1.23-5.5 3.37-13.15 4.74-17 1.38-3.85 4.07-10.15 5.98-14 1.91-3.85 5.86-10.6 8.77-15 2.91-4.4 8.61-11.55 12.66-15.9 4.05-4.34 10.97-10.68 15.37-14.08 4.4-3.39 10.7-7.8 14-9.78 3.3-1.98 8.7-4.82 12-6.31 3.3-1.49 9.6-3.99 14-5.57 4.4-1.57 8.45-2.85 9-2.84 0.55 0.01-0.13 0.9-1.5 1.98-1.38 1.08-2.84 1.97-3.25 1.98-0.41 0.01-3.56 2.44-7 5.4-3.44 2.95-8.13 7.79-10.43 10.75-2.3 2.95-5.84 8.75-7.88 12.87-2.03 4.13-4.55 10.2-5.59 13.5-1.04 3.3-2.39 10.05-2.99 15-0.61 4.98-0.82 13.47-0.47 19 0.34 5.5 1.48 13.82 2.51 18.5 1.04 4.68 3.1 12.1 4.58 16.5 1.49 4.4 5.87 14.52 9.73 22.5 3.87 7.98 9.47 18.55 12.44 23.5 2.97 4.95 5.39 9.11 5.38 9.25-0.02 0.14 1.7 2.84 3.82 6 2.12 3.16 8.48 13.63 14.13 23.25 5.64 9.63 12.01 20.99 14.14 25.25 2.14 4.26 5.28 11.24 6.98 15.5 1.71 4.26 4.36 11.8 5.89 16.75 1.53 4.95 3.5 11.93 4.37 15.5 0.87 3.57 2.31 10.77 3.19 16 0.88 5.23 1.94 15.8 2.35 23.5 0.42 7.7 0.38 20.3-0.09 28-0.46 7.7-1.55 17.82-2.41 22.5-0.87 4.67-2.7 12.77-4.07 18-1.38 5.23-4.43 14.67-6.79 21-2.35 6.33-5.98 14.88-8.05 19-2.08 4.13-6.01 11.1-8.74 15.5-2.74 4.4-8.19 12.27-12.11 17.5-3.93 5.22-12.32 14.71-18.64 21.08-6.33 6.38-14.1 13.58-17.27 16.01-3.18 2.42-5.56 4.64-5.29 4.91 0.27 0.27 4.22-1.72 8.78-4.44 4.55-2.72 11.43-6.97 15.28-9.45 3.85-2.48 10.37-6.99 14.5-10.03 4.12-3.03 11.1-8.52 15.5-12.18 4.4-3.67 11.83-10.43 16.5-15.03 4.67-4.6 11.66-11.97 15.52-16.37 3.86-4.4 9.92-11.83 13.47-16.5 3.55-4.67 9.45-13.23 13.11-19 3.66-5.77 9.6-16.13 13.21-23 3.6-6.88 8.83-18.24 11.62-25.25 2.79-7.01 6.44-17.36 8.11-23 1.67-5.64 4.15-15.2 5.52-21.25 1.36-6.05 3.41-17.3 4.55-25 1.39-9.39 2.18-20.59 2.41-34 0.19-11-0.08-24.5-0.61-30-0.52-5.5-1.89-15.63-3.02-22.5-1.14-6.88-3.55-18.35-5.36-25.5-1.81-7.15-5.39-18.85-7.94-26-2.56-7.15-8.67-21.1-13.58-31-4.9-9.9-12.82-23.85-17.59-31-4.77-7.15-12.1-17.27-16.3-22.48-4.19-5.22-13.47-15.4-20.62-22.63-7.15-7.23-17.5-16.7-23-21.04-5.5-4.34-14.27-10.85-19.5-14.47-5.23-3.63-11.98-7.99-15-9.71-3.02-1.71-9.1-5.02-13.5-7.36-4.4-2.34-12.73-6.35-18.5-8.91-5.77-2.56-14.55-6.02-19.5-7.68-4.95-1.66-13.95-4.46-20-6.22-6.05-1.76-14.15-3.85-18-4.64-3.85-0.8-11.73-2.11-17.5-2.92-5.77-0.8-10.86-1.57-11.29-1.7-0.43-0.13-1.82-3.16-3.09-6.74-1.26-3.58-4.45-10.78-7.09-16-2.64-5.23-6.31-11.86-8.16-14.75-1.85-2.89-3.37-5.7-3.37-6.25 0-0.55-0.45-1-1-1-0.55 0-1-0.45-1-1 0-0.55-2.09-4.04-4.65-7.75-2.56-3.71-5.73-8.1-7.04-9.75-1.31-1.65-4.51-5.74-7.1-9.08-2.59-3.34-5.84-7.41-7.21-9.03-1.38-1.63-3.02-3.31-3.65-3.73-0.63-0.43-1.19-0.3-1.25 0.28z"/>
		<path id="Path 1" class="s1" d="m292 93c-5.23 0.99-14.23 2.99-20 4.44-5.77 1.45-15.9 4.47-22.5 6.71-6.6 2.25-16.5 6-22 8.35-5.5 2.35-14.05 6.43-19 9.06-4.95 2.63-11.36 6.28-14.25 8.11-2.89 1.83-5.47 3.33-5.75 3.33-0.28 0-4.44 2.76-9.25 6.13-4.81 3.37-12.57 9.08-17.25 12.69-4.68 3.61-15.51 13.56-24.08 22.12-8.57 8.56-18.61 19.38-22.31 24.06-3.7 4.68-10.5 14.13-15.1 21-4.6 6.88-11.52 18.57-15.38 26-3.86 7.43-8.8 17.77-10.97 23-2.18 5.23-5.52 14-7.44 19.5-1.92 5.5-5.09 16.98-7.05 25.5-1.97 8.52-4.27 20.23-5.11 26-0.85 5.77-2 19.5-2.55 30.5-0.83 16.45-0.73 22.66 0.55 35 0.86 8.25 2.69 21.07 4.06 28.5 1.37 7.43 3.65 17.77 5.06 23 1.41 5.23 4.27 14.45 6.36 20.5 2.08 6.05 5.66 15.27 7.94 20.5 2.29 5.23 6.66 14.23 9.72 20 3.06 5.77 8.31 14.77 11.66 20 3.35 5.23 9.84 14.45 14.41 20.5 4.57 6.05 13.13 16.14 19.02 22.42 5.89 6.28 15.66 15.67 21.71 20.88 6.05 5.2 15.72 12.82 21.5 16.93 5.78 4.11 15.34 10.35 21.25 13.87 5.91 3.52 15.81 8.82 22 11.77 6.19 2.96 15.3 6.97 20.25 8.91 4.95 1.94 14.85 5.33 22 7.53 7.15 2.2 14.8 4.28 17 4.61l4 0.62c-5.43-2.65-12.18-5.96-18.5-9.05-6.32-3.1-15.78-8.47-21-11.93-5.22-3.46-12.65-8.83-16.5-11.92-3.85-3.1-10.32-8.78-14.38-12.63-4.06-3.86-11.01-11.51-15.44-17.01-4.43-5.5-11.14-14.73-14.91-20.5-3.77-5.77-9.49-15.9-12.7-22.5-3.21-6.6-7.51-16.5-9.56-22-2.04-5.5-4.78-14.05-6.09-19-1.31-4.95-3.24-13.27-4.3-18.5-1.07-5.23-2.49-14.68-3.17-21-0.8-7.42-1.03-18.24-0.66-30.5 0.39-12.79 1.27-22.76 2.7-30.5 1.16-6.32 3.42-16.45 5.01-22.5 1.6-6.05 4.54-15.73 6.54-21.5 2-5.77 5.93-15.9 8.72-22.5 2.8-6.6 8.32-18.3 12.26-26 3.94-7.7 8.66-16.7 10.49-20 1.83-3.3 6.7-11.62 10.82-18.5 4.12-6.87 11.62-19.02 16.67-27 5.05-7.97 14.12-22.15 20.17-31.5 6.05-9.35 15.05-23.75 20-32 4.94-8.25 11.75-19.95 15.11-26 3.37-6.05 9.24-17.53 13.05-25.5 3.81-7.97 8.95-19.67 11.43-26 2.49-6.32 5.48-14.65 6.65-18.5 1.17-3.85 2.12-7.56 2.11-8.25-0.01-0.69-0.81-1.21-1.77-1.15-0.96 0.05-6.02 0.91-11.25 1.9z"/>
		<path id="Stroke" class="s2" d="m320.1 4.94c-0.05 0.58 1.18 2.97 2.75 5.31 1.57 2.34 5.14 8.52 7.94 13.75 2.79 5.23 7.1 14.45 9.56 20.5 2.47 6.05 6.08 16.4 8.01 23 1.94 6.6 4.42 17.17 5.53 23.5 1.1 6.33 2.27 14.42 2.59 18 0.33 3.58 0.79 10.1 1.03 14.5 0.24 4.4-0.02 13.85-0.58 21-0.56 7.15-1.68 16.82-2.49 21.5-0.81 4.68-2.21 11.43-3.11 15-0.89 3.57-3.39 11.45-5.56 17.5-2.16 6.05-6.12 15.72-8.81 21.5-2.69 5.78-7.87 16.13-11.51 23-3.64 6.88-8.55 15.88-10.91 20-2.36 4.13-5.77 10.2-7.57 13.5-1.81 3.3-5.42 10.05-8.04 15-2.62 4.95-6.64 13.27-8.93 18.5-2.3 5.23-4.76 10.85-5.48 12.5-0.71 1.65-2.66 7.05-4.33 12-1.67 4.95-3.94 12.82-5.06 17.5-1.11 4.68-2.5 11.76-3.08 15.75-0.58 3.99-1.06 12.31-1.06 18.5-0.01 6.19 0.33 12.72 0.75 14.52 0.42 1.8 1.1 3.27 1.51 3.25 0.41-0.01 0.75-1.03 0.74-2.27 0-1.24 0.92-5.85 2.04-10.25 1.13-4.4 3.22-11.6 4.64-16 1.42-4.4 4.92-12.95 7.77-19 2.85-6.05 7.38-14.38 10.07-18.5 2.69-4.13 7.84-11.55 11.45-16.5 3.61-4.95 7.36-10.13 8.33-11.5 0.97-1.37 6.14-8.95 11.49-16.83 5.35-7.89 12.37-18.46 15.61-23.5 3.23-5.05 7.8-12.99 10.15-17.67 2.35-4.68 5.26-11.43 6.47-15 1.21-3.57 2.72-10.89 3.35-16.26 0.63-5.36 1.48-9.75 1.89-9.75 0.41 0.01 1.43 2.37 2.26 5.26 0.82 2.89 1.95 7.95 2.49 11.25 0.54 3.3 0.98 12.07 0.98 19.5-0.01 7.43-0.66 17.32-1.45 22-0.79 4.68-2.3 11.43-3.34 15-1.05 3.57-4.72 13.25-8.16 21.5-3.44 8.25-8.66 20.85-11.59 28-2.94 7.15-6.25 16.6-7.35 21-1.11 4.4-2.51 12.73-3.12 18.5-0.62 5.77-0.82 13.2-0.45 16.5 0.37 3.3 1.79 9.38 3.17 13.5 1.37 4.13 4.14 9.94 6.15 12.91 2.01 2.98 5.92 7.48 8.69 10 2.77 2.53 7.72 5.87 11 7.44 3.28 1.58 8.89 3.48 12.47 4.24 3.57 0.76 8.52 1.38 11 1.38 2.47 0 7.42-0.69 11-1.54 3.57-0.85 9.17-2.98 12.43-4.74 3.26-1.75 8.44-5.67 11.51-8.69 3.06-3.02 6.88-7.75 8.48-10.5 1.59-2.75 3.81-7.7 4.92-11 1.5-4.46 2.03-8.7 2.07-16.5 0.03-7.92-0.53-12.59-2.26-19-1.26-4.68-6.27-18.18-11.12-30-4.86-11.82-9.84-25.1-11.06-29.5-1.23-4.4-2.82-12.05-3.54-17-0.74-5.1-1.17-14.86-1-22.5 0.22-9.36 1-16.57 2.55-23.5 1.23-5.5 3.37-13.15 4.74-17 1.38-3.85 4.07-10.15 5.98-14 1.91-3.85 5.86-10.6 8.77-15 2.91-4.4 8.61-11.55 12.66-15.9 4.05-4.34 10.97-10.68 15.37-14.08 4.4-3.39 10.7-7.8 14-9.78 3.3-1.98 8.7-4.82 12-6.31 3.3-1.49 9.6-3.99 14-5.57 4.4-1.57 8.45-2.85 9-2.84 0.55 0.01-0.13 0.9-1.5 1.98-1.38 1.08-2.84 1.97-3.25 1.98-0.41 0.01-3.56 2.44-7 5.4-3.44 2.95-8.13 7.79-10.43 10.75-2.3 2.95-5.84 8.75-7.88 12.87-2.03 4.13-4.55 10.2-5.59 13.5-1.04 3.3-2.39 10.05-2.99 15-0.61 4.98-0.82 13.47-0.47 19 0.34 5.5 1.48 13.82 2.51 18.5 1.04 4.68 3.1 12.1 4.58 16.5 1.49 4.4 5.87 14.52 9.73 22.5 3.87 7.98 9.47 18.55 12.44 23.5 2.97 4.95 5.39 9.11 5.38 9.25-0.02 0.14 1.7 2.84 3.82 6 2.12 3.16 8.48 13.63 14.13 23.25 5.64 9.63 12.01 20.99 14.14 25.25 2.14 4.26 5.28 11.24 6.98 15.5 1.71 4.26 4.36 11.8 5.89 16.75 1.53 4.95 3.5 11.93 4.37 15.5 0.87 3.57 2.31 10.77 3.19 16 0.88 5.23 1.94 15.8 2.35 23.5 0.42 7.7 0.38 20.3-0.09 28-0.46 7.7-1.55 17.82-2.41 22.5-0.87 4.67-2.7 12.77-4.07 18-1.38 5.23-4.43 14.67-6.79 21-2.35 6.33-5.98 14.88-8.05 19-2.08 4.13-6.01 11.1-8.74 15.5-2.74 4.4-8.19 12.27-12.11 17.5-3.93 5.22-12.32 14.71-18.64 21.08-6.33 6.38-14.1 13.58-17.27 16.01-3.18 2.42-5.56 4.64-5.29 4.91 0.27 0.27 4.22-1.72 8.78-4.44 4.55-2.72 11.43-6.97 15.28-9.45 3.85-2.48 10.37-6.99 14.5-10.03 4.12-3.03 11.1-8.52 15.5-12.18 4.4-3.67 11.83-10.43 16.5-15.03 4.67-4.6 11.66-11.97 15.52-16.37 3.86-4.4 9.92-11.83 13.47-16.5 3.55-4.67 9.45-13.23 13.11-19 3.66-5.77 9.6-16.13 13.21-23 3.6-6.88 8.83-18.24 11.62-25.25 2.79-7.01 6.44-17.36 8.11-23 1.67-5.64 4.15-15.2 5.52-21.25 1.36-6.05 3.41-17.3 4.55-25 1.39-9.39 2.18-20.59 2.41-34 0.19-11-0.08-24.5-0.61-30-0.52-5.5-1.89-15.63-3.02-22.5-1.14-6.88-3.55-18.35-5.36-25.5-1.81-7.15-5.39-18.85-7.94-26-2.56-7.15-8.67-21.1-13.58-31-4.9-9.9-12.82-23.85-17.59-31-4.77-7.15-12.1-17.27-16.3-22.48-4.19-5.22-13.47-15.4-20.62-22.63-7.15-7.23-17.5-16.7-23-21.04-5.5-4.34-14.27-10.85-19.5-14.47-5.23-3.63-11.98-7.99-15-9.71-3.02-1.71-9.1-5.02-13.5-7.36-4.4-2.34-12.73-6.35-18.5-8.91-5.77-2.56-14.55-6.02-19.5-7.68-4.95-1.66-13.95-4.46-20-6.22-6.05-1.76-14.15-3.85-18-4.64-3.85-0.8-11.73-2.11-17.5-2.92-5.77-0.8-10.86-1.57-11.29-1.7-0.43-0.13-1.82-3.16-3.09-6.74-1.26-3.58-4.45-10.78-7.09-16-2.64-5.23-6.31-11.86-8.16-14.75-1.85-2.89-3.37-5.7-3.37-6.25 0-0.55-0.45-1-1-1-0.55 0-1-0.45-1-1 0-0.55-2.09-4.04-4.65-7.75-2.56-3.71-5.73-8.1-7.04-9.75-1.31-1.65-4.51-5.74-7.1-9.08-2.59-3.34-5.84-7.41-7.21-9.03-1.38-1.63-3.02-3.31-3.65-3.73-0.63-0.43-1.19-0.3-1.25 0.28zm-28.1 88.06c-5.23 0.99-14.23 2.99-20 4.44-5.77 1.45-15.9 4.47-22.5 6.71-6.6 2.25-16.5 6-22 8.35-5.5 2.35-14.05 6.43-19 9.06-4.95 2.63-11.36 6.28-14.25 8.11-2.89 1.83-5.48 3.33-5.75 3.33-0.28 0-4.44 2.76-9.25 6.13-4.81 3.37-12.58 9.08-17.25 12.69-4.68 3.61-15.51 13.56-24.08 22.12-8.57 8.56-18.61 19.38-22.31 24.06-3.7 4.68-10.5 14.12-15.1 21-4.6 6.87-11.52 18.57-15.38 26-3.86 7.43-8.8 17.77-10.97 23-2.18 5.23-5.52 14-7.44 19.5-1.92 5.5-5.09 16.98-7.05 25.5-1.97 8.52-4.27 20.23-5.11 26-0.85 5.77-2 19.5-2.55 30.5-0.83 16.45-0.73 22.66 0.55 35 0.86 8.25 2.69 21.07 4.06 28.5 1.37 7.43 3.65 17.77 5.06 23 1.41 5.23 4.27 14.45 6.36 20.5 2.08 6.05 5.66 15.27 7.94 20.5 2.29 5.23 6.66 14.23 9.72 20 3.06 5.77 8.31 14.77 11.66 20 3.35 5.23 9.84 14.45 14.41 20.5 4.57 6.05 13.13 16.14 19.02 22.42 5.89 6.28 15.66 15.67 21.71 20.88 6.05 5.2 15.72 12.82 21.5 16.93 5.77 4.11 15.34 10.35 21.25 13.87 5.91 3.52 15.81 8.82 22 11.77 6.19 2.96 15.3 6.97 20.25 8.91 4.95 1.94 14.85 5.33 22 7.53 7.15 2.2 14.8 4.28 17 4.61l4 0.62c-5.43-2.65-12.18-5.96-18.5-9.05-6.33-3.1-15.78-8.47-21-11.93-5.23-3.46-12.65-8.83-16.5-11.92-3.85-3.1-10.32-8.78-14.38-12.63-4.06-3.86-11.01-11.51-15.44-17.01-4.43-5.5-11.14-14.73-14.91-20.5-3.77-5.77-9.49-15.9-12.7-22.5-3.21-6.6-7.51-16.5-9.56-22-2.04-5.5-4.78-14.05-6.09-19-1.31-4.95-3.24-13.27-4.3-18.5-1.07-5.23-2.49-14.68-3.17-21-0.8-7.42-1.03-18.24-0.66-30.5 0.39-12.79 1.27-22.76 2.7-30.5 1.16-6.32 3.42-16.45 5.01-22.5 1.6-6.05 4.54-15.73 6.54-21.5 2-5.77 5.93-15.9 8.72-22.5 2.8-6.6 8.32-18.3 12.26-26 3.94-7.7 8.66-16.7 10.49-20 1.83-3.3 6.7-11.63 10.82-18.5 4.12-6.88 11.62-19.02 16.67-27 5.05-7.97 14.12-22.15 20.17-31.5 6.05-9.35 15.05-23.75 20-32 4.94-8.25 11.75-19.95 15.11-26 3.37-6.05 9.24-17.53 13.05-25.5 3.81-7.97 8.95-19.68 11.43-26 2.49-6.33 5.48-14.65 6.65-18.5 1.17-3.85 2.12-7.56 2.11-8.25-0.01-0.69-0.81-1.21-1.77-1.15-0.96 0.05-6.03 0.91-11.25 1.9z"/>
	</g>
</svg>